<svg width="96" height="96" viewBox="0 0 96 96" fill="none" xmlns="http://www.w3.org/2000/svg">
<circle cx="48" cy="48" r="48" fill="#FFE34F"/>
<path d="M48.5878 75.0001C47.533 75.0001 46.4781 75.0001 45.4232 75.0001C44.7058 74.9157 43.9991 74.8419 43.2817 74.747C37.9545 73.9981 33.2497 71.8677 29.22 68.3134C24.473 64.1262 21.4982 58.9055 20.4117 52.6512C20.2429 51.6282 20.1374 50.6051 20.0002 49.5821C20.0002 48.5274 20.0002 47.4727 20.0002 46.418C20.0424 46.0594 20.0846 45.6903 20.1268 45.3317C20.7809 39.4254 23.0594 34.2364 27.0469 29.8172C27.4056 29.4165 27.7854 29.0262 28.2495 28.5305C25.9604 28.5305 23.7979 28.5305 21.6142 28.5305C21.6142 27.4336 21.6142 26.4106 21.6142 25.3981C25.7283 25.3981 29.7897 25.3981 33.9143 25.3981C33.9143 27.4969 33.9143 29.543 33.9143 31.684C34.2308 31.452 34.4628 31.2833 34.7055 31.104C39.1044 27.9293 44.0202 26.6215 49.3896 27.2438C54.5902 27.8344 58.9996 30.1231 62.523 34.036C65.8143 37.6958 67.6076 42.0094 67.8607 46.9137C68.1245 51.9762 66.7109 56.5852 63.6201 60.6036C59.6959 65.6977 54.4742 68.5032 48.0709 68.8302C41.5623 69.1677 35.9924 66.8684 31.5935 62.0274C27.1313 57.1231 25.4224 51.3012 26.3823 44.7305C26.8887 41.2395 28.2706 38.0965 30.412 35.2911C30.5492 35.1118 30.7285 34.9114 30.7391 34.711C30.7707 33.361 30.7496 32.0215 30.7496 30.6294C24.7895 35.8395 20.9391 45.9223 24.5574 56.0051C28.1335 65.9719 38.0706 72.8169 49.4107 71.6884C60.1389 70.6126 68.9684 62.386 70.5824 51.4383C71.3946 45.9118 70.3714 40.6805 67.4915 35.8922C63.5673 29.3954 57.7654 25.5879 50.2651 24.3434C50.4339 23.2993 50.5921 22.2973 50.7715 21.2532C51.2356 21.327 51.6576 21.3797 52.069 21.4536C58.0186 22.6454 63.0821 25.4297 67.1118 29.9754C72.3546 35.8817 74.6015 42.8426 73.8736 50.6895C73.3462 56.4165 71.1204 61.479 67.3016 65.7927C63.1137 70.5282 57.9026 73.4708 51.6681 74.5677C50.6449 74.7575 49.6111 74.863 48.5878 75.0001ZM59.6853 51.702C59.6853 47.7786 59.6853 43.9501 59.6853 40.0688C58.9891 40.0688 58.3562 40.0899 57.7338 40.0583C57.3857 40.0477 57.1536 40.1426 56.9321 40.4274C54.0944 44.0977 51.2356 47.7469 48.3874 51.4067C48.303 51.5122 48.1764 51.6387 48.1764 51.7548C48.1553 52.7989 48.1659 53.843 48.1659 54.9399C50.8242 54.9399 53.4193 54.9399 56.067 54.9399C56.067 56.2899 56.067 57.5977 56.067 58.9266C57.3013 58.9266 58.4827 58.9266 59.7064 58.9266C59.7064 57.5872 59.7064 56.3005 59.7064 54.9399C60.5081 54.9399 61.2677 54.9399 62.0483 54.9399C62.0483 53.8325 62.0483 52.7883 62.0483 51.702C61.2888 51.702 60.5398 51.702 59.6853 51.702ZM35.8553 45.0364C36.0768 44.7938 36.235 44.604 36.4144 44.4352C37.5642 43.3278 38.8723 42.695 40.5179 43.043C41.3302 43.2223 41.9315 43.6864 42.1214 44.5301C42.3112 45.3317 41.9315 45.9434 41.288 46.3758C40.6023 46.8294 39.8744 47.2301 39.1677 47.652C38.0284 48.3376 36.8258 48.9493 35.7709 49.7403C33.8826 51.1536 33.3235 53.1891 33.3974 55.4673C37.7541 55.4673 42.0686 55.4673 46.3831 55.4673C46.3831 54.3704 46.3831 53.3157 46.3831 52.2083C43.672 52.2083 41.0137 52.2083 38.3448 52.2083C38.3026 52.1555 38.271 52.1028 38.2288 52.0501C38.5558 51.7653 38.8512 51.4489 39.1993 51.2063C40.1803 50.5313 41.193 49.909 42.1846 49.2446C43.0602 48.6645 44.0096 48.1477 44.7586 47.4305C47.0899 45.2051 46.3515 41.5665 43.3767 40.3536C41.1403 39.4465 38.9039 39.6364 36.6887 40.4274C35.5283 40.8493 34.4523 41.4294 33.5345 42.3364C34.3151 43.254 35.0641 44.1294 35.8553 45.0364Z" fill="#111111"/>
<path d="M47.0056 21C47.0056 22.0336 47.0056 23.0672 47.0056 24.1113C45.7398 24.2168 44.5161 24.3117 43.2396 24.4172C43.0814 23.3941 42.9232 22.4027 42.7544 21.3375C43.7354 21.2215 44.6849 21.116 45.6343 21C46.0879 21 46.552 21 47.0056 21Z" fill="#111111"/>
<path d="M39.5898 21.9915C39.8958 23.0567 40.17 24.027 40.4549 25.029C39.3578 25.4297 38.2818 25.8305 37.153 26.2524C36.7311 25.3243 36.3091 24.3961 35.845 23.3731C37.1003 22.909 38.3029 22.4661 39.5898 21.9915Z" fill="#111111"/>
<path d="M51.8264 51.6387C53.3771 49.6137 54.8856 47.652 56.4679 45.5742C56.4679 47.673 56.4679 49.6242 56.4679 51.6387C54.9594 51.6387 53.4404 51.6387 51.8264 51.6387Z" fill="#111111"/>
</svg>
