<svg width="96" height="96" viewBox="0 0 96 96" fill="none" xmlns="http://www.w3.org/2000/svg">
<circle cx="48" cy="48" r="48" fill="#FFE34F"/>
<path d="M60.3274 54.8091L74.158 36.4266L38.0626 22L29.8227 42.6165L43.9648 48.269L42.2262 52.6052C42.0862 52.595 41.9462 52.5872 41.8051 52.5872C39.396 52.5872 37.3493 54.161 36.6358 56.3341H31.236V48.8267H21V67.567H31.236V59.721H36.6356C37.3491 61.8941 39.396 63.4678 41.805 63.4678C44.8046 63.4678 47.2453 61.0282 47.2453 58.0275C47.2453 56.3826 46.5104 54.9072 45.3521 53.908L47.1099 49.5255L60.3274 54.8091ZM57.478 44.2987L60.6232 45.5553L59.3655 48.7004L56.2214 47.4439L57.478 44.2987Z" fill="#111111"/>
<path d="M75.1606 40.728L65.8423 53.1125L73.4491 56.1526L79 42.2622L75.1606 40.728Z" fill="#111111"/>
</svg>
