<svg width="22" height="22" viewBox="0 0 22 22" fill="none" xmlns="http://www.w3.org/2000/svg">
<g clip-path="url(#clip0)">
<path d="M21.4331 16.2329L18.6988 13.498C17.9693 12.7685 16.6947 12.7673 15.964 13.498L15.5081 13.954L20.9773 19.4229L21.4331 18.9671C22.1901 18.21 22.1876 16.9861 21.4331 16.2329Z" fill="#FFE34F"/>
<path d="M14.5714 14.8401C13.996 15.2858 13.1752 15.268 12.6495 14.7411L7.24331 9.33122C6.71638 8.80429 6.69864 7.9829 7.14435 7.40897L1.68772 1.95264C-0.659707 4.68888 -0.567926 8.81185 2.02287 11.4026L10.5781 19.9616C13.0642 22.4477 17.1366 22.7774 20.0283 20.2966L14.5714 14.8401Z" fill="#FFE34F"/>
<path d="M8.48652 3.28244L5.75229 0.547609C5.02277 -0.181913 3.74819 -0.183159 3.01746 0.547609L2.56152 1.00355L8.03075 6.47247L8.48652 6.01666C9.24354 5.25964 9.24105 4.03572 8.48652 3.28244Z" fill="#FFE34F"/>
</g>
<defs>
<clipPath id="clip0">
<rect width="22" height="22" fill="white"/>
</clipPath>
</defs>
</svg>
