<svg width="24" height="25" viewBox="0 0 24 25" fill="none" xmlns="http://www.w3.org/2000/svg">
<path d="M12 3.6333C7.32169 3.6333 3.51562 7.56695 3.51562 12.4021C3.51562 17.2372 7.32169 21.1709 12 21.1709C16.6783 21.1709 20.4844 17.2372 20.4844 12.4021C20.4844 7.56695 16.6783 3.6333 12 3.6333ZM12.7031 13.1288H7.54331V11.6754H11.2969V7.79601H12.7031V13.1288Z" fill="#FFE34F"/>
<path d="M20.4853 3.63246C18.2188 1.29006 15.2053 0 12 0C8.79469 0 5.78123 1.29006 3.51469 3.63246C1.24823 5.97495 0 9.08938 0 12.4021C0 15.7148 1.24823 18.8292 3.51469 21.1717C5.78123 23.5141 8.79469 24.8042 12 24.8042C15.2053 24.8042 18.2188 23.5141 20.4853 21.1717C22.7518 18.8292 24 15.7148 24 12.4021C24 9.08938 22.7518 5.97495 20.4853 3.63246ZM12 22.6241C6.54628 22.6241 2.10938 18.0386 2.10938 12.4021C2.10938 6.76564 6.54628 2.18006 12 2.18006C17.4537 2.18006 21.8906 6.76564 21.8906 12.4021C21.8906 18.0386 17.4537 22.6241 12 22.6241Z" fill="#FFE34F"/>
</svg>
