<svg width="104" height="100" viewBox="0 0 104 100" fill="none" xmlns="http://www.w3.org/2000/svg">
<path d="M103.746 58.3161C103.635 58.7386 103.524 59.1611 103.424 59.5947C103.19 60.5843 102.845 61.5405 102.256 62.3743C101.066 64.0532 99.3319 64.687 97.2861 64.1978C96.1521 63.9309 95.0291 63.6085 93.895 63.4084C91.9826 63.0748 90.048 63.1638 88.1357 63.4528C84.8557 63.9309 81.7537 64.9872 78.7739 66.4215C78.4849 66.566 78.1847 66.7105 77.8066 66.8995C78.9296 64.9538 80.3528 63.4528 82.1984 62.3743C85.0114 60.7288 88.1023 60.2952 91.3044 60.4064C93.5726 60.4953 95.7963 60.8845 97.9755 61.5071C98.7093 61.7184 99.4653 61.5293 100.188 61.2847C101.611 60.8178 102.612 59.8282 103.446 58.6386C103.546 58.494 103.668 58.3717 103.779 58.2272C103.746 58.2605 103.746 58.2828 103.746 58.3161Z" fill="white"/>
<path d="M51.2449 27.9407C53.3352 28.0519 55.9703 28.1297 58.572 28.3521C60.5288 28.5188 62.4746 28.8413 64.4092 29.1637C69.1567 29.9642 73.7598 31.3207 78.2405 33.0552C78.6185 33.1997 78.9854 33.3554 79.3635 33.4999C80.3863 33.9224 80.9089 34.6784 80.8867 35.8014C80.8422 37.5915 80.8311 39.3815 80.7088 41.1716C80.5865 43.1618 80.3863 45.152 80.1751 47.1422C79.8304 50.3443 79.2412 53.5019 78.4851 56.6373C77.1509 62.1187 75.2274 67.3889 72.5701 72.3699C69.4013 78.2849 65.3876 83.544 60.3065 87.958C58.1495 89.837 55.8257 91.4936 53.3352 92.9057C52.3012 93.4949 51.345 93.5617 50.2999 92.8945C48.5876 91.8049 46.931 90.6486 45.3522 89.37C43.3064 87.7022 41.4051 85.8677 39.6262 83.922C37.0022 81.0423 34.7007 77.918 32.6883 74.5825C29.842 69.8794 27.6739 64.8761 26.0839 59.6171C24.8831 55.67 23.9937 51.6452 23.5156 47.5536C23.2376 45.1409 23.0375 42.7171 22.8596 40.3044C22.7484 38.77 22.7373 37.2246 22.7151 35.6791C22.7039 34.734 23.1376 34.0225 23.9937 33.6111C26.4064 32.4659 28.9191 31.5986 31.4764 30.8537C34.3227 30.0198 37.2135 29.3638 40.1488 28.9191C42.1167 28.6189 44.1069 28.4299 46.0971 28.252C47.6315 28.1075 49.1769 28.063 51.2449 27.9407ZM50.5778 30.1644C46.7865 30.1532 41.9722 30.6313 37.2024 31.6431C33.0885 32.5104 29.0748 33.6555 25.2278 35.3789C24.9499 35.5012 24.8387 35.6457 24.8387 35.9571C24.8498 40.5379 25.1945 45.0853 25.9394 49.6105C26.7733 54.6583 28.0741 59.5615 29.9643 64.3202C33.0441 72.0475 37.4247 78.9187 43.3842 84.7559C45.7858 87.1019 48.3653 89.2144 51.2449 90.9711C51.6452 91.2157 51.9565 91.2268 52.3679 91.0044C54.4582 89.8481 56.3928 88.4805 58.2162 86.9573C63.0305 82.9324 66.8997 78.1182 70.0017 72.659C72.8703 67.6224 74.9161 62.2522 76.3281 56.6373C77.2287 53.035 77.8513 49.3881 78.2516 45.6968C78.5963 42.4836 78.7408 39.2592 78.7742 36.0238C78.7742 35.668 78.6741 35.5012 78.3406 35.39C77.6735 35.1565 77.0175 34.8786 76.3615 34.634C68.3784 31.6653 60.1508 30.1644 50.5778 30.1644Z" fill="white"/>
<path d="M67.8114 11.2074C65.8101 15.3323 63.8421 19.4128 61.9186 23.4043C55.192 21.3585 48.5209 21.6476 41.7943 23.4488C39.8485 19.4128 37.8695 15.3323 35.8904 11.2407C37.1579 11.3297 38.1919 11.8745 39.1258 12.6417C39.4928 12.9419 39.8041 13.2976 40.1487 13.609C40.36 13.798 40.3822 14.0092 40.3378 14.2761C40.1265 15.4546 40.1932 16.5887 41.0382 17.5338C41.7164 18.2787 42.6059 18.5789 43.5732 18.7679C45.5523 19.1682 47.7649 17.8896 48.8322 16.1328C49.655 14.7875 50.0886 13.3199 50.2332 11.7744C50.3221 10.8071 50.3221 9.83981 50.3555 8.87251C50.3777 8.09422 49.8885 7.52718 49.5105 6.92678C49.2436 6.5154 48.8878 6.15961 48.532 5.72599C49.4993 3.82474 50.4111 1.8123 51.8453 0C53.2685 1.8123 54.1802 3.81362 55.192 5.7927C54.447 6.3931 53.9134 7.16027 53.5687 8.02751C53.3797 8.49448 53.3241 9.0504 53.3241 9.56185C53.3463 11.1518 53.4575 12.7195 53.9801 14.2427C54.4248 15.5324 55.0363 16.7221 56.1259 17.6005C57.9827 19.0903 59.8951 19.2682 61.9409 18.1453C63.175 17.4671 63.7087 16.055 63.3974 14.454C63.3084 14.0092 63.4196 13.7424 63.7198 13.4422C64.676 12.486 65.7211 11.6855 67.0665 11.363C67.2888 11.2852 67.5223 11.263 67.8114 11.2074Z" fill="white"/>
<path d="M22.8929 56.9486C21.1918 55.9034 19.424 54.9917 17.5116 54.4358C17.4894 54.4803 17.456 54.5136 17.4338 54.5581C17.8452 54.8361 18.2454 55.114 18.6568 55.392C20.5803 56.6929 22.3704 58.1605 23.8602 59.9617C24.8498 61.1625 25.6392 62.4744 25.9172 64.031C25.9283 64.1089 25.9505 64.1978 25.9505 64.2756C25.9616 64.3423 25.9505 64.409 25.9505 64.4535C25.0388 63.7864 24.1604 63.086 23.2376 62.4633C20.8138 60.8512 18.1787 59.7393 15.3213 59.0944C14.4429 58.8943 13.6202 58.4385 12.7974 58.0493C10.9073 57.1376 9.10609 56.0702 7.4272 54.8027C4.85885 52.8681 2.6018 50.6556 1.31207 47.6425C0.778382 46.3861 0.478185 45.0741 0.500421 43.6843C0.500421 43.6176 0.500421 43.5398 0.51154 43.473C0.51154 43.4508 0.533777 43.4286 0.500421 43.4953C1.0897 44.3959 1.6345 45.3743 2.32384 46.2415C3.5024 47.7092 5.05898 48.4652 6.98247 48.4986C10.596 48.5764 14.0427 49.3992 17.2337 51.1336C19.702 52.4901 21.6477 54.3691 22.8929 56.9486Z" fill="white"/>
<path d="M77.6511 64.4201C77.8513 63.753 77.9958 63.0637 78.2849 62.441C79.2411 60.3174 80.8199 58.683 82.6099 57.2376C83.7551 56.3148 84.9671 55.492 86.1567 54.6248C86.1901 54.6025 86.2234 54.5803 86.2345 54.5136C84.2666 54.9583 82.5432 55.9145 80.742 57.0264C80.8755 56.7595 80.9422 56.5927 81.0311 56.4371C82.3987 54.0021 84.4 52.2232 86.8572 50.9557C87.591 50.5777 88.3137 50.1663 89.092 49.9106C90.8265 49.3546 92.5943 48.8654 94.4177 48.6764C95.2405 48.5986 96.0744 48.5319 96.9082 48.4985C98.9763 48.4318 100.533 47.4534 101.723 45.8412C102.278 45.0852 102.712 44.2513 103.246 43.3729C103.19 44.0623 103.168 44.696 103.068 45.3187C102.69 47.509 101.667 49.388 100.255 51.0891C97.8867 53.9354 94.8958 55.9479 91.6603 57.6712C90.2038 58.4495 88.6917 59.0499 87.0684 59.4613C83.7329 60.3063 80.7976 61.9629 78.1737 64.1644C78.0514 64.2645 77.918 64.3645 77.7957 64.4646C77.7401 64.4535 77.6956 64.4312 77.6511 64.4201Z" fill="white"/>
<path d="M73.5819 78.4738C74.2156 78.6072 74.7826 78.4849 75.3163 78.2403C77.0063 77.4954 78.0515 76.1389 78.6963 74.4712C79.1188 73.4038 79.3523 72.2697 79.7971 71.2024C80.6309 69.2233 81.8428 67.4554 83.0881 65.7099C83.1548 65.6209 83.2327 65.5208 83.3327 65.4986C84.4223 65.2429 85.5119 64.9983 86.5904 64.7426C86.6015 64.7759 86.6127 64.8093 86.6349 64.8426C86.3236 65.2095 86.0123 65.5653 85.7009 65.9322C83.3883 68.6562 82.0096 71.8139 81.1313 75.2606C80.6643 77.0729 79.8304 78.7518 78.2961 79.9526C76.9174 81.0311 75.3608 81.1534 73.7264 80.5863C72.3699 80.1082 71.1914 79.3411 70.124 78.3626C70.5132 77.8845 70.9357 77.4398 71.2803 76.9506C73.1038 74.4045 74.9049 71.8361 76.7061 69.2789C76.7395 69.2344 76.784 69.1899 76.7951 69.1454C77.44 67.6556 78.8186 67.1552 80.2529 66.566C79.9972 67.0552 79.7637 67.4777 79.5413 67.9113C78.6741 69.6458 78.0181 71.447 77.7624 73.3816C77.5623 74.8937 76.7284 76.0945 75.5832 77.0618C75.0828 77.4954 74.5047 77.8401 73.9599 78.2292C73.8598 78.3182 73.7153 78.396 73.5819 78.4738Z" fill="white"/>
<path d="M33.5442 78.3737C32.6992 79.152 31.7986 79.8525 30.7201 80.2527C29.953 80.5418 29.1413 80.8309 28.3297 80.8976C26.5507 81.0421 25.2165 80.1527 24.2047 78.7517C23.3042 77.5065 22.726 76.1056 22.348 74.6046C21.6809 71.9028 20.5468 69.39 18.9013 67.133C18.3231 66.3436 17.6782 65.5986 17 64.7759C17.7561 64.9204 18.4454 65.1094 19.1459 65.1873C20.1132 65.2984 20.7024 65.8099 21.225 66.6215C22.3591 68.3894 23.5154 70.135 24.227 72.1252C24.5161 72.9479 24.6828 73.8152 25.0164 74.6157C25.6835 76.2501 26.7286 77.5732 28.3964 78.2625C28.9078 78.4738 29.4749 78.5405 30.0086 78.6628C30.0308 78.6072 30.053 78.5516 30.0753 78.4849C29.7973 78.307 29.5082 78.1402 29.2303 77.9512C27.8071 77.0173 26.6174 75.8721 26.0838 74.2043C25.8614 73.5038 25.8058 72.77 25.639 72.0473C25.2499 70.3017 24.5272 68.6784 23.6822 67.1107C23.5932 66.9551 23.5043 66.7994 23.482 66.5659C24.1492 66.8884 24.8163 67.1886 25.4611 67.5555C25.7724 67.7334 26.0615 67.9891 26.2728 68.2893C28.2741 71.1245 30.2421 73.9708 32.2434 76.806C32.6436 77.3397 33.0995 77.8289 33.5442 78.3737Z" fill="white"/>
<path d="M22.4149 52.3122C20.3024 48.91 17.256 46.7197 13.5202 45.4188C16.8668 47.131 19.8688 49.2213 21.4698 52.8904C20.8027 52.3789 20.2135 51.8786 19.5686 51.445C17.3116 49.9218 14.8321 48.8878 12.2304 48.1539C11.5633 47.9649 10.874 47.8426 10.2069 47.6647C10.0512 47.6203 9.88444 47.5535 9.77325 47.4535C8.65029 46.3861 7.67187 45.2076 7.03812 43.7733C6.27095 42.0166 6.33766 40.2932 7.31608 38.6366C7.49398 38.3364 7.7497 38.0695 8.01654 37.7249C8.00542 37.9583 7.99431 38.114 7.98319 38.2808C7.93871 39.5705 8.62806 40.4711 9.55089 41.2383C10.6738 42.1722 12.0081 42.6726 13.3534 43.1506C15.9106 44.0624 18.2344 45.341 20.0467 47.4201C21.2697 48.821 22.048 50.4332 22.4371 52.2455C22.4483 52.2678 22.426 52.29 22.4149 52.3122Z" fill="white"/>
<path d="M90.1593 45.4299C86.4013 46.6974 83.3437 48.8766 81.209 52.3122C81.3535 51.8119 81.4647 51.3004 81.6426 50.8001C82.5543 48.2429 84.2999 46.3861 86.5458 44.9518C87.9468 44.0623 89.47 43.4397 91.0377 42.8949C92.1162 42.528 93.1391 42.0277 94.0508 41.3161C95.1737 40.4377 95.8853 39.3593 95.6629 37.736C96.2077 38.2363 96.5191 38.7589 96.7526 39.3259C97.4641 40.9714 97.2751 42.5836 96.4968 44.1513C95.8631 45.4188 94.9625 46.4862 93.9285 47.4535C93.8062 47.5647 93.6283 47.6536 93.4504 47.687C89.8814 48.4097 86.5569 49.7105 83.5661 51.823C83.1213 52.1343 82.7322 52.5012 82.2764 52.8126C83.9108 49.2991 86.8238 47.1533 90.1593 45.4299Z" fill="white"/>
<path d="M25.5168 92.5277C26.94 92.183 28.063 91.4158 28.9969 90.404C29.9309 89.4034 30.7536 88.3027 31.6209 87.2353C32.577 86.0567 33.6444 84.9783 34.8786 84.0888C35.8792 83.3661 36.513 83.3327 37.5248 84.0554C38.014 84.4001 38.4031 84.8671 38.8034 85.334C37.2023 85.3563 36.0015 86.0234 35.1232 87.3354C35.3011 87.2686 35.4901 87.2019 35.668 87.113C37.1801 86.4125 38.7144 86.268 40.2599 86.9796C41.0827 87.3687 41.772 87.9358 42.339 88.6918C40.2043 89.2922 38.2919 90.3373 36.3573 91.3269C35.5679 91.7271 34.8341 92.2497 34.0224 92.5944C31.254 93.7618 28.4521 93.6173 25.6614 92.6166C25.6169 92.6166 25.5836 92.5833 25.5168 92.5277Z" fill="white"/>
<path d="M61.3293 88.6918C63.4085 86.268 65.8212 85.9455 68.5897 87.3798C68.0782 86.3124 66.6328 85.3451 64.8984 85.4007C65.2319 84.767 65.7211 84.3222 66.2993 83.9553C66.4772 83.8441 66.6662 83.7663 66.8663 83.6885C67.4 83.4995 67.8892 83.4884 68.4007 83.8219C70.0017 84.867 71.3026 86.2346 72.4589 87.7356C73.404 88.9697 74.3157 90.2261 75.5609 91.1934C76.3281 91.7938 77.1509 92.283 78.1182 92.5165C78.1182 92.561 78.1182 92.6055 78.1293 92.6499C77.3621 92.8501 76.595 93.0836 75.8167 93.2281C73.4262 93.6617 71.1136 93.3949 68.9344 92.2719C68.1116 91.8494 67.3444 91.3157 66.5105 90.8932C64.8539 90.0705 63.2084 89.2032 61.3293 88.6918Z" fill="white"/>
<path d="M25.8281 66.7661C24.2938 66.1324 22.7817 65.4653 21.2251 64.8871C18.6345 63.9309 15.9772 63.3528 13.1976 63.2305C10.9961 63.1415 8.87251 63.4528 6.76001 64.0977C5.30349 64.5424 3.8581 64.4646 2.54612 63.5418C1.90125 63.0748 1.4454 62.4522 1.06737 61.7628C0.489211 60.6955 0.200132 59.528 0 58.2272C0.63375 59.2501 1.35645 60.0617 2.27928 60.6732C3.22434 61.2959 4.25836 61.6294 5.38132 61.5405C5.9706 61.496 6.53764 61.2736 7.1158 61.1402C9.98435 60.4509 12.8863 60.1618 15.8215 60.5287C19.0236 60.9178 21.8922 62.063 24.127 64.4868C24.7719 65.1873 25.3055 65.9878 25.8948 66.7328C25.8726 66.7439 25.8504 66.755 25.8281 66.7661Z" fill="white"/>
<path d="M45.4632 91.1823C43.9511 91.3268 42.6725 91.8272 42.1166 93.4171C44.1179 91.7938 46.1081 91.7493 48.1872 93.3393C46.4083 93.5616 45.1074 94.6179 43.7287 95.4851C42.4724 96.2746 41.2605 97.1307 40.0152 97.9312C38.781 98.7317 37.4246 99.2432 36.0126 99.6101C35.7791 99.6657 35.5233 99.6212 35.2231 99.6212C35.4789 99.2209 35.7235 98.854 35.957 98.4871C36.8576 97.1307 37.3468 95.5963 37.9916 94.1287C38.8589 92.1274 40.2932 90.6375 42.3612 89.8481C42.6836 89.7258 43.0283 89.5701 43.3618 89.5813C43.7065 89.5924 44.1068 89.7036 44.3847 89.9037C44.8072 90.215 45.1408 90.6486 45.5077 91.0378C45.4855 91.1045 45.4743 91.149 45.4632 91.1823Z" fill="white"/>
<path d="M55.6477 93.2502C56.4816 92.572 57.46 92.1495 58.583 92.1718C59.7059 92.194 60.651 92.7277 61.5071 93.4504C61.5738 92.9167 61.0957 92.1829 60.2952 91.7937C59.6615 91.4824 58.961 91.3045 58.2605 91.071C58.6052 90.5485 59.0277 90.0259 59.6392 89.7035C59.8394 89.6034 60.1062 89.5478 60.3174 89.5923C61.8407 89.8702 63.1193 90.6374 64.1533 91.7715C65.1317 92.8389 65.8211 94.0952 66.2436 95.4962C66.6661 96.9193 67.5222 98.1312 68.3005 99.3765C68.3338 99.4321 68.3783 99.4877 68.4117 99.5544C68.4228 99.5766 68.4228 99.61 68.4228 99.6545C67.7668 99.7879 67.1664 99.5099 66.5771 99.3209C64.7759 98.765 63.2416 97.7199 61.6961 96.6858C60.3619 95.7964 59.0055 94.918 57.6268 94.1064C57.0375 93.7283 56.337 93.5282 55.6477 93.2502Z" fill="white"/>
<path d="M34.5895 80.8533C33.133 80.92 31.9433 81.6427 30.7425 82.2987C29.3861 83.0436 27.9518 83.3772 26.4397 83.4327C25.1833 83.4772 23.9158 83.4661 22.6483 83.4772C22.5371 83.4772 22.4371 83.4772 22.2925 83.5773C22.3926 83.6329 22.4815 83.6996 22.5816 83.7218C24.6163 84.2666 26.6732 84.5224 28.7523 83.9776C29.3972 83.8108 30.0198 83.4883 30.6202 83.177C31.6209 82.6656 32.6104 82.1319 33.7334 81.9429C34.4895 81.8206 35.1232 82.0763 35.3567 82.6322C35.4456 82.8323 35.4568 82.9769 35.2233 83.1103C33.0774 84.3 30.8204 85.1339 28.3743 85.4118C25.0054 85.7899 21.8144 85.145 18.7458 83.7552C16.9557 82.9435 15.299 81.9095 13.7647 80.6865C13.7091 80.642 13.6646 80.5975 13.5757 80.5086C14.5208 80.8199 15.4102 81.1201 16.2997 81.387C18.7791 82.143 21.3141 82.5989 23.9047 82.61C25.6837 82.6211 27.4404 82.4098 29.1637 81.9095C30.2978 81.576 31.3541 81.0868 32.3658 80.4641C32.6994 80.2529 33.0996 80.1306 33.4888 80.0527C34.1003 79.9416 34.4005 80.175 34.5895 80.8533Z" fill="white"/>
<path d="M90.0482 80.5308C83.1548 86.2235 74.8049 87.0462 68.2561 82.9435C68.434 82.1319 69.0566 81.7872 69.9572 81.9429C71.1247 82.1541 72.1809 82.6433 73.1704 83.2549C74.2489 83.922 75.4275 84.1777 76.6616 84.2444C78.1515 84.3333 79.6303 84.1332 81.0645 83.7107C81.1757 83.6773 81.2758 83.6329 81.387 83.5884C81.3758 83.555 81.3758 83.5217 81.3647 83.4772C81.1535 83.4772 80.9422 83.4661 80.7421 83.4772C78.952 83.5439 77.162 83.4995 75.383 83.1993C74.5047 83.0547 73.7264 82.6767 72.9481 82.2653C72.3254 81.9318 71.7028 81.5982 71.0468 81.3314C70.4353 81.0868 69.7904 80.9422 69.1567 80.7421C69.2456 80.2195 69.5681 79.9304 70.1574 80.0305C70.5465 80.0972 70.969 80.1973 71.2914 80.4085C72.8258 81.4203 74.5269 81.9873 76.317 82.2987C80.0083 82.9324 83.6107 82.4877 87.1686 81.4314C88.0914 81.1646 89.0364 80.8533 90.0482 80.5308Z" fill="white"/>
<path d="M61.2515 24.4049C61.1292 25.072 61.018 25.6947 60.8957 26.3507C54.8696 25.2055 48.8545 25.1165 42.8172 26.573C42.6282 25.9726 42.4503 25.3611 42.239 24.6829C48.5654 23.1041 54.8696 23.2041 61.2515 24.4049Z" fill="white"/>
<path d="M10.3735 73.5929C12.0858 74.0932 13.7202 74.5936 15.3768 75.0383C17.2336 75.5497 19.1237 75.95 21.0583 76.0723C21.1584 76.0834 21.303 76.1501 21.3585 76.228C21.6699 76.6838 21.9478 77.1619 22.2814 77.6845C19.5796 77.729 16.9779 77.3509 14.454 76.4837C14.4429 76.5282 14.4206 76.5615 14.4095 76.606C15.2768 77.0063 16.1329 77.451 17.0224 77.8179C18.679 78.4961 20.3801 79.0409 22.1591 79.2855C22.4593 79.33 22.7706 79.4078 23.0708 79.3856C23.5266 79.3522 23.8046 79.5746 24.1048 79.8748C24.6162 80.3863 25.1944 80.8532 25.8504 81.4314C24.1826 81.1423 22.6038 80.9199 21.0472 80.5975C18.9458 80.1528 16.9334 79.4745 15.0544 78.4183C13.2977 77.4288 11.7745 76.1946 10.7849 74.3934C10.6293 74.1377 10.507 73.882 10.3735 73.5929Z" fill="white"/>
<path d="M93.3281 73.5596C92.6944 75.0494 91.7271 76.2169 90.5152 77.1731C89.1921 78.2182 87.7245 78.9742 86.1568 79.5635C83.6662 80.4975 81.0979 81.02 78.4628 81.2646C78.3071 81.2758 78.1626 81.3091 78.0181 81.3313C78.6852 80.7087 79.3189 80.0639 80.0194 79.5079C80.2529 79.33 80.6754 79.3745 81.02 79.3412C83.1548 79.1299 85.1672 78.4739 87.1241 77.6289C87.8579 77.3176 88.5695 76.9396 89.2699 76.5393C86.7238 77.351 84.1332 77.729 81.4203 77.6956C81.7539 77.1731 82.0541 76.6727 82.3654 76.1946C82.4098 76.1279 82.521 76.0835 82.5989 76.0723C85.3229 75.8944 87.9246 75.1829 90.5263 74.4268C91.438 74.16 92.3386 73.8598 93.3281 73.5596Z" fill="white"/>
<path d="M51.6784 32.1433C53.9466 32.299 56.2258 32.4102 58.494 32.6214C62.2965 32.9772 66.0212 33.711 69.6791 34.8117C71.9028 35.49 74.0931 36.3127 76.2835 37.091C76.9061 37.3134 76.9839 37.4357 76.9839 38.1028C76.9617 45.5633 76.0945 52.9014 73.9486 60.0617C71.8917 66.9218 68.7674 73.2259 64.2533 78.8074C61.1624 82.621 57.6045 85.9232 53.3573 88.447C53.0237 88.6472 52.6679 88.8028 52.3344 89.003C51.9564 89.2253 51.6117 89.192 51.2448 88.9807C48.9655 87.6465 46.8975 86.0455 44.9517 84.2665C39.8595 79.619 35.8791 74.1376 32.955 67.9113C31.9877 65.8433 31.1093 63.7197 30.3421 61.5627C28.8189 57.271 27.8516 52.8458 27.2734 48.3317C26.8509 44.974 26.6286 41.6162 26.5952 38.2362C26.5952 37.6136 26.8065 37.28 27.3735 37.0354C30.6979 35.5678 34.1669 34.5227 37.7136 33.7444C42.2055 32.7548 46.7529 32.299 51.356 32.2323C51.4671 32.2323 51.5783 32.2323 51.6895 32.2323C51.6784 32.1989 51.6784 32.1655 51.6784 32.1433ZM76.4614 38.9811C76.4614 38.7588 76.4503 38.4475 76.4614 38.125C76.4725 37.8693 76.3724 37.7025 76.1389 37.6136C75.8943 37.5135 75.6608 37.4023 75.4162 37.3134C73.4149 36.6352 71.4358 35.9236 69.4123 35.3121C67.8668 34.8451 66.288 34.5115 64.7203 34.1557C63.7641 33.9334 62.8079 33.7666 61.8406 33.5998C61.2402 33.4886 60.6287 33.4108 60.0172 33.3441C59.1389 33.2552 58.2716 33.1773 57.3933 33.1106C56.337 33.0217 55.2808 32.8882 54.2245 32.8882C52.0453 32.8771 49.8661 32.9216 47.698 32.9661C46.853 32.9883 46.0191 33.0328 45.1741 33.1329C44.0067 33.2663 42.8392 33.433 41.6829 33.6109C40.6489 33.7666 39.6038 33.9 38.592 34.1335C36.8131 34.5449 35.023 34.9452 33.2885 35.49C31.3428 36.1015 29.4415 36.8575 27.5292 37.5469C27.2623 37.6469 27.14 37.8137 27.1623 38.1139C27.2067 38.9478 27.2067 39.7706 27.2512 40.6044C27.329 42.1165 27.4069 43.6286 27.5069 45.1408C27.5848 46.2304 27.6626 47.3311 27.8182 48.4207C28.0962 50.2552 28.3964 52.1009 28.7967 53.9132C29.2303 55.87 29.7195 57.8158 30.3088 59.7393C30.8425 61.4849 31.4873 63.1971 32.1655 64.8871C32.7215 66.2769 33.3441 67.6333 34.0223 68.9676C34.6561 70.2239 35.3565 71.4692 36.1126 72.6589C37.0688 74.1821 38.0472 75.6942 39.1368 77.1285C40.282 78.6295 41.5273 80.0749 42.8281 81.4424C44.0956 82.7766 45.4298 84.0553 46.8419 85.2116C48.265 86.379 49.8327 87.3686 51.3337 88.4359C51.6228 88.6472 51.923 88.6583 52.2232 88.4915C52.6346 88.2691 53.046 88.0468 53.4351 87.7911C54.6693 86.9572 55.9256 86.1678 57.0931 85.2561C58.305 84.2999 59.4168 83.2103 60.562 82.154C61.1402 81.6203 61.6961 81.0533 62.2187 80.464C62.7746 79.8414 63.3083 79.2076 63.7975 78.5405C64.8648 77.1174 65.9767 75.7164 66.944 74.2266C68.3227 72.1141 69.5679 69.9237 70.5464 67.6C71.358 65.6654 72.1585 63.7308 72.859 61.7517C73.6039 59.6281 74.2266 57.4711 74.6491 55.2585C74.9159 53.8243 75.2495 52.39 75.483 50.9446C75.6942 49.6104 75.8165 48.2539 75.9722 46.8975C76.0945 45.7634 76.2279 44.6293 76.3057 43.4952C76.3724 42.0054 76.4058 40.5488 76.4614 38.9811Z" fill="white"/>
<path d="M59.8616 41.8275C59.8616 41.9165 59.8949 42.0166 59.8616 42.0944C59.617 42.5725 59.3501 43.0395 59.1055 43.5175C57.9714 45.7412 56.8485 47.976 55.7255 50.2108C54.7804 52.0676 53.8465 53.9355 52.9014 55.7923C52.6346 56.3149 52.3455 56.8152 52.112 57.3378C52.0342 57.5268 52.0119 57.8159 52.1009 57.9937C52.7124 59.2612 53.3573 60.5065 53.991 61.7629C55.3252 64.4202 56.6595 67.0775 57.9937 69.7348C58.5829 70.9134 59.1833 72.103 59.7726 73.2816C59.8393 73.4261 59.906 73.5707 59.9727 73.7152C59.9394 73.7374 59.9172 73.7597 59.8838 73.7819C59.806 73.6819 59.7059 73.5818 59.6503 73.4706C58.4162 71.0134 57.2043 68.5451 55.9701 66.088C54.7026 63.553 53.4351 61.0291 52.1565 58.5052C52.1009 58.394 51.9452 58.2606 51.8341 58.2495C51.734 58.2495 51.5894 58.394 51.5339 58.5052C50.5332 60.462 49.5437 62.4189 48.5541 64.3757C47.5312 66.4104 46.4972 68.4451 45.4743 70.4686C45.0073 71.3915 44.5404 72.3143 44.0623 73.2371C44.0067 73.3372 43.9289 73.4261 43.8733 73.5262C43.8399 73.5151 43.8065 73.4928 43.7732 73.4817C43.7954 73.3928 43.8177 73.3038 43.851 73.226C45.1296 70.6799 46.4083 68.1449 47.6869 65.5987C48.6208 63.7531 49.5548 61.8963 50.4887 60.0507C50.8334 59.3724 51.2114 58.7164 51.5116 58.0271C51.6006 57.8158 51.6117 57.4934 51.5116 57.2933C50.3664 54.9362 49.1879 52.5902 48.0204 50.2331C47.3422 48.8766 46.6529 47.5202 45.9746 46.1637C45.3075 44.8406 44.6515 43.5175 43.9844 42.1945C43.9289 42.0833 43.8844 41.961 43.8288 41.8498C43.8621 41.8275 43.9066 41.8164 43.94 41.7942C44.0623 42.0054 44.2068 42.2167 44.318 42.4391C45.5521 44.9185 46.7863 47.409 48.0316 49.8995C49.199 52.2233 50.3775 54.5359 51.5561 56.8485C51.6117 56.9486 51.734 57.082 51.8341 57.082C51.923 57.082 52.0564 56.9486 52.112 56.8485C53.0348 55.0585 53.9466 53.2573 54.8471 51.4561C56.3481 48.4986 57.838 45.5411 59.339 42.5947C59.4724 42.3279 59.6392 42.0722 59.7837 41.8053C59.7949 41.8164 59.8282 41.8275 59.8616 41.8275Z" fill="white"/>
<path d="M53.2239 42.8948C52.7792 43.8733 52.3345 44.8628 51.8675 45.8412C51.8119 45.9635 51.6451 46.1081 51.5339 46.1081C51.4228 46.1081 51.256 45.9746 51.2004 45.8523C50.7779 44.9629 50.3776 44.0623 49.9774 43.1617C49.9329 43.0616 49.8773 42.9727 49.7661 42.8948C49.7661 44.507 49.7661 46.1192 49.7661 47.7647C49.5215 47.7647 49.3214 47.7647 49.0879 47.7647C49.0879 45.8301 49.0879 43.8844 49.0879 41.9387C49.1212 41.9275 49.1435 41.9053 49.1657 41.9053C50.0663 41.8608 50.0663 41.8719 50.4443 42.6836C50.8112 43.4841 51.1782 44.2958 51.5895 45.1741C52.012 44.2291 52.4457 43.3729 52.7792 42.4835C52.9571 42.0165 53.1906 41.8052 53.6909 41.8942C53.791 41.9164 53.9022 41.8942 54.0467 41.8942C54.0467 43.8621 54.0467 45.7968 54.0467 47.7647C53.8466 47.7647 53.6242 47.7647 53.3574 47.7647C53.3574 46.1525 53.3574 44.5292 53.3574 42.906C53.3018 42.906 53.2684 42.8948 53.2239 42.8948Z" fill="white"/>
<path d="M62.0854 56.615C62.0854 55.8923 62.0854 55.1696 62.0854 54.4247C62.3411 54.4247 62.5523 54.4247 62.797 54.4247C62.797 56.3371 62.797 58.2494 62.797 60.184C62.5857 60.184 62.3745 60.184 62.1076 60.184C62.1076 59.2501 62.1076 58.2939 62.1076 57.3266C61.1292 57.3266 60.2064 57.3266 59.2502 57.3266C59.2502 58.2717 59.2502 59.2167 59.2502 60.184C58.9945 60.184 58.761 60.184 58.5164 60.184C58.5164 58.2606 58.5164 56.3482 58.5164 54.4136C58.7498 54.4136 58.9611 54.4136 59.2168 54.4136C59.2168 55.1363 59.2168 55.8479 59.2168 56.6039C60.1841 56.615 61.1181 56.615 62.0854 56.615Z" fill="white"/>
<path d="M44.2625 56.9374C44.6183 56.4371 44.9963 55.9924 45.2632 55.5032C45.5745 54.925 46.0081 54.7693 46.6641 54.9584C46.0192 55.8145 45.3855 56.6706 44.7072 57.5601C45.3521 58.4495 46.0081 59.339 46.7086 60.3063C46.3639 60.3063 46.0859 60.3397 45.8191 60.2952C45.6857 60.273 45.53 60.1507 45.4522 60.0284C45.0297 59.4502 44.6294 58.8498 44.1958 58.2272C43.8289 58.7497 43.4509 59.1945 43.1729 59.7059C42.8616 60.2952 42.4168 60.3953 41.7831 60.2507C42.4391 59.3613 43.0728 58.494 43.7288 57.6045C43.0951 56.7262 42.4502 55.8367 41.772 54.8916C42.0944 54.8916 42.339 54.8583 42.5836 54.9028C42.7393 54.925 42.9172 55.014 43.0061 55.1363C43.4286 55.7144 43.8289 56.3148 44.2625 56.9374Z" fill="white"/>
<path d="M51.2782 71.6472C51.2782 72.3921 51.2782 73.0815 51.2782 73.793C51.0002 73.793 50.7556 73.793 50.4888 73.793C50.4888 71.9029 50.4888 70.0128 50.4888 68.0226C51.4005 68.0893 52.3122 68.0893 53.2017 68.2227C53.891 68.3339 54.358 68.812 54.4469 69.5569C54.5248 70.3019 54.269 70.9245 53.6019 71.2803C53.2128 71.4804 52.7458 71.5582 52.3011 71.6361C51.9898 71.6917 51.6673 71.6472 51.2782 71.6472ZM51.3004 68.7008C51.3004 69.5124 51.3004 70.2352 51.3004 71.0246C51.8119 70.9801 52.3011 70.9801 52.768 70.8911C53.3017 70.7911 53.6242 70.3241 53.613 69.8015C53.6019 69.2678 53.3128 68.9009 52.7347 68.812C52.2788 68.723 51.8119 68.7342 51.3004 68.7008Z" fill="white"/>
</svg>
