<svg width="96" height="96" viewBox="0 0 96 96" fill="none" xmlns="http://www.w3.org/2000/svg">
<circle cx="48" cy="48" r="48" fill="#FFE34F"/>
<path d="M64.7713 45.2127L62.3857 41.9487C62.236 41.7391 62.226 41.4497 62.3757 41.2401L64.7114 37.9462C64.921 37.6467 64.8212 37.2275 64.5018 37.0578L60.9384 35.1514C60.7088 35.0316 60.5791 34.7721 60.629 34.5126L61.2978 30.53C61.3576 30.1706 61.0881 29.8313 60.7188 29.8213L56.6863 29.6516C56.4268 29.6416 56.1972 29.4619 56.1274 29.2124L55.0094 25.3196C54.9096 24.9703 54.5203 24.7806 54.181 24.9304L50.4679 26.5274C50.2283 26.6272 49.9488 26.5673 49.7692 26.3777L47.0742 23.3733C46.8246 23.1038 46.4054 23.1038 46.1559 23.3832L43.5008 26.4276C43.3311 26.6272 43.0517 26.6871 42.8121 26.5873L39.079 25.0501C38.7397 24.9104 38.3604 25.1 38.2605 25.4494L37.1925 29.3422C37.1227 29.5917 36.9031 29.7714 36.6436 29.7913L32.611 30.0209C32.2417 30.0409 31.9822 30.3802 32.0421 30.7396L32.7708 34.7122C32.8207 34.9717 32.6909 35.2312 32.4713 35.351L28.9379 37.3074C28.6185 37.487 28.5286 37.9063 28.7382 38.1957L31.1238 41.4597C31.2735 41.6693 31.2835 41.9587 31.1338 42.1683L28.7981 45.4622C28.5885 45.7617 28.6883 46.1809 29.0077 46.3506L32.5711 48.257C32.8007 48.3768 32.9305 48.6363 32.8805 48.8958L32.2118 52.8784C32.1519 53.2378 32.4214 53.5771 32.7907 53.5871L36.8232 53.7568C37.0827 53.7668 37.3123 53.9465 37.3822 54.196L38.5101 58.0788C38.6099 58.4281 38.9992 58.6178 39.3385 58.4681L43.0517 56.871C43.2912 56.7712 43.5707 56.8311 43.7504 57.0207L46.4453 60.0252C46.6949 60.2947 47.1141 60.2947 47.3636 60.0152L50.0187 56.9708C50.1884 56.7712 50.4679 56.7113 50.7074 56.8111L54.4405 58.3483C54.7799 58.488 55.1592 58.2984 55.259 57.949L56.327 54.0563C56.3969 53.8067 56.6164 53.6271 56.876 53.6071L60.9085 53.3775C61.2778 53.3576 61.5373 53.0182 61.4774 52.6588L60.7488 48.6862C60.6989 48.4267 60.8286 48.1672 61.0482 48.0474L64.5816 46.0911C64.9011 45.9313 64.9909 45.5121 64.7713 45.2127ZM46.7648 52.6688C40.726 52.6688 35.8051 47.748 35.8051 41.7092C35.8051 35.6704 40.726 30.7496 46.7648 30.7496C52.8035 30.7496 57.7244 35.6704 57.7244 41.7092C57.7244 47.758 52.8035 52.6688 46.7648 52.6688Z" fill="#111111"/>
<path d="M56.6365 59.7556C56.0575 60.3445 55.249 60.6939 54.3807 60.6939C54.0712 60.6939 53.7618 60.644 53.4723 60.5641L50.8971 59.7856L48.9108 61.6022C48.8409 61.6621 48.7811 61.722 48.7112 61.7719L51.9053 71.6735C52.015 72.0228 52.4642 72.1027 52.6938 71.8132L55.0195 68.8288C55.1293 68.679 55.3289 68.6192 55.4986 68.6691L59.1219 69.7271C59.4712 69.8269 59.7906 69.4975 59.6808 69.1582L56.6365 59.7556Z" fill="#111111"/>
<path d="M42.6426 59.7856L40.0674 60.5641C39.7679 60.6539 39.4685 60.6939 39.1591 60.6939C38.2907 60.6939 37.4921 60.3445 36.9032 59.7556L33.8589 69.1681C33.7491 69.5175 34.0685 69.8369 34.4179 69.7371L38.0411 68.679C38.2208 68.6291 38.4104 68.689 38.5202 68.8387L40.8459 71.8232C41.0655 72.1127 41.5247 72.0328 41.6345 71.6835L44.8285 61.7819C44.7586 61.7319 44.6888 61.6721 44.6289 61.6122L42.6426 59.7856Z" fill="#111111"/>
<path d="M53.2627 38.9843L49.1303 38.6849L47.5732 34.852C47.2838 34.1333 46.2557 34.1333 45.9662 34.852L44.4091 38.6849L40.2768 38.9843C39.4982 39.0442 39.1888 40.0124 39.7777 40.5115L42.9418 43.1865L41.9537 47.209C41.764 47.9676 42.5925 48.5665 43.2513 48.1573L46.7647 45.9713L50.2782 48.1573C50.937 48.5665 51.7655 47.9676 51.5758 47.209L50.5876 43.1865L53.7518 40.5115C54.3507 40.0124 54.0412 39.0442 53.2627 38.9843Z" fill="#111111"/>
</svg>
