<svg width="96" height="96" viewBox="0 0 96 96" fill="none" xmlns="http://www.w3.org/2000/svg">
<circle cx="48" cy="48" r="48" fill="#FFE34F"/>
<path d="M53.2282 33.7278C45.4843 33.7278 39.1841 40.0279 39.1841 47.7718C39.1841 55.5156 45.4843 61.8157 53.2282 61.8157C60.972 61.8157 67.2721 55.5156 67.2721 47.7718C67.2721 40.0279 60.972 33.7278 53.2282 33.7278ZM59.8506 49.4124H51.5875V37.8962H54.8688V46.1311H59.8506V49.4124Z" fill="#111111"/>
<path d="M53.2909 25.0001C48.2948 24.9866 43.6728 26.5833 39.9123 29.2987H27.4948C25.5371 29.2987 23.9502 30.8858 23.9502 32.8434C23.9502 34.8011 25.5372 36.388 27.4948 36.388H33.5022C32.3576 38.3672 31.5033 40.5349 30.995 42.8328H23.5446C21.587 42.8329 20 44.4198 20 46.3775C20 48.3352 21.587 49.9222 23.5446 49.9222H30.5582C30.7699 52.1828 31.3122 54.3471 32.1362 56.367H29.6044C27.6467 56.367 26.0598 57.954 26.0598 59.9116C26.0598 61.8693 27.6468 63.4562 29.6044 63.4562H36.7197C40.8685 67.8216 46.7304 70.5434 53.2282 70.5434C65.8047 70.5435 76 60.3483 76 47.7719C76 35.1901 65.8725 25.034 53.2909 25.0001ZM53.2282 65.097C43.6751 65.097 35.903 57.3249 35.903 47.7717C35.903 38.2186 43.6751 30.4465 53.2282 30.4465C62.7814 30.4465 70.5535 38.2186 70.5535 47.7717C70.5535 57.3249 62.7814 65.097 53.2282 65.097Z" fill="#111111"/>
</svg>
